<?xml version="1.0" standalone="no"?>
<!DOCTYPE svg PUBLIC "-//W3C//DTD SVG 20010904//EN"
 "http://www.w3.org/TR/2001/REC-SVG-20010904/DTD/svg10.dtd">
<svg version="1.0" xmlns="http://www.w3.org/2000/svg"
 width="225.000000pt" height="225.000000pt" viewBox="0 0 225.000000 225.000000"
 preserveAspectRatio="xMidYMid meet">

<g transform="translate(0.000000,225.000000) scale(0.100000,-0.100000)"
fill="#000000" stroke="none">
<path d="M700 1830 c-320 -323 -392 -391 -425 -400 -22 -7 -84 -25 -137 -41
l-98 -30 0 -184 c0 -107 4 -185 9 -185 5 0 52 11 103 25 51 14 102 25 113 25
13 0 162 -142 430 -410 225 -225 413 -410 417 -410 4 0 186 180 405 400 l399
400 90 24 c49 14 109 32 132 41 l42 17 0 184 c0 101 -3 184 -7 184 -5 0 -51
-11 -103 -25 -52 -14 -104 -25 -115 -25 -13 0 -157 136 -420 400 -219 219
-401 397 -403 395 -3 -2 172 -181 387 -396 338 -339 389 -394 374 -403 -10 -6
-116 -12 -243 -14 -189 -3 -274 1 -525 24 -305 28 -658 38 -755 21 -45 -8 -45
-7 345 383 214 214 385 390 380 389 -6 -1 -183 -176 -395 -389z m1470 -550 l0
-169 -95 -30 c-275 -88 -526 -97 -1050 -35 -181 22 -277 28 -450 28 -229 1
-313 -9 -456 -53 l-59 -19 2 176 3 175 55 19 c30 10 100 28 155 40 147 32 490
31 815 -2 184 -19 293 -24 500 -24 269 0 348 7 495 48 92 26 85 38 85 -154z
m-1205 -244 c66 -8 161 -20 210 -26 215 -27 626 -23 713 7 9 3 -161 -173 -378
-391 l-395 -396 -408 408 -407 407 52 7 c87 10 485 1 613 -16z"/>
<path d="M495 1368 c-2 -7 -5 -62 -7 -121 l-3 -108 25 3 c18 2 26 10 28 28 6
47 24 78 53 90 37 16 59 0 59 -44 0 -55 10 -76 37 -76 23 0 23 2 18 53 -10 85
-14 97 -39 107 -22 8 -68 2 -108 -15 -16 -6 -18 -1 -18 44 0 45 -3 51 -20 51
-11 0 -23 -6 -25 -12z"/>
<path d="M283 1327 c-53 -20 -57 -30 -61 -142 -4 -100 -3 -105 16 -105 17 0
21 9 27 49 l7 49 58 21 c89 33 139 105 91 131 -26 13 -97 12 -138 -3z m95 -26
c27 -16 7 -44 -46 -68 l-52 -23 0 41 c0 32 4 41 23 49 29 11 58 12 75 1z"/>
<path d="M1314 1319 c-3 -6 -9 -60 -12 -120 l-5 -109 25 0 c23 0 26 5 32 53 3
28 6 82 6 120 0 60 -2 67 -19 67 -11 0 -23 -5 -27 -11z"/>
<path d="M1447 1313 c-3 -5 -6 -57 -8 -118 -4 -100 -2 -110 15 -113 10 -2 22
0 26 5 4 4 11 59 15 121 l7 112 -25 0 c-14 0 -28 -3 -30 -7z"/>
<path d="M1899 1273 c-62 -32 -74 -42 -74 -63 0 -23 4 -25 58 -28 88 -5 75
-31 -22 -41 -40 -4 -56 -10 -56 -21 0 -34 118 -19 169 21 20 15 26 29 24 48
-3 24 -8 26 -58 31 l-55 5 33 18 c19 10 40 16 47 13 20 -7 49 19 42 38 -9 24
-26 20 -108 -21z"/>
<path d="M829 1291 c-69 -22 -97 -59 -79 -105 13 -36 44 -48 116 -48 35 0 66
-4 69 -9 4 -5 15 -9 27 -9 16 0 18 4 12 18 -5 9 -9 43 -8 74 0 49 -3 58 -22
67 -34 15 -86 21 -115 12z m81 -75 c0 -41 -2 -45 -28 -51 -43 -9 -82 9 -82 39
0 36 26 56 71 56 l39 0 0 -44z"/>
<path d="M1053 1261 c-28 -13 -45 -45 -41 -79 6 -53 107 -91 191 -72 45 10 52
15 42 30 -5 8 -19 9 -39 5 -42 -10 -95 -7 -120 7 -19 11 -18 12 19 20 116 22
145 44 100 74 -28 18 -121 28 -152 15z m106 -30 c18 -11 6 -17 -54 -25 l-50
-7 24 21 c24 21 57 26 80 11z"/>
<path d="M1614 1226 c-61 -27 -82 -88 -44 -126 15 -15 33 -20 75 -20 70 0 116
35 117 89 2 63 -71 90 -148 57z m95 -40 c10 -11 10 -20 0 -38 -16 -30 -28 -38
-61 -38 -47 0 -60 66 -16 83 26 11 66 7 77 -7z"/>
<path d="M1965 925 c-25 -25 -33 -55 -15 -55 6 0 15 11 20 25 5 14 14 25 20
25 14 0 13 -6 -6 -42 -15 -30 -15 -32 2 -45 16 -11 22 -8 55 25 l37 37 -29 28
c-36 33 -53 34 -84 2z m65 -45 c0 -11 -7 -20 -15 -20 -17 0 -18 2 -9 24 9 23
24 20 24 -4z"/>
<path d="M1881 839 c-33 -33 -33 -63 0 -33 18 16 19 16 19 -19 0 -20 5 -39 11
-43 14 -8 73 49 67 66 -3 9 -8 8 -20 -4 -24 -23 -28 -20 -28 18 0 48 -13 52
-49 15z"/>
<path d="M1802 758 c-33 -33 -34 -62 -1 -32 18 16 19 16 19 -19 0 -20 5 -39
11 -43 16 -10 82 57 68 70 -7 8 -14 6 -23 -6 -20 -27 -26 -22 -26 22 0 22 -4
40 -9 40 -5 0 -23 -14 -39 -32z"/>
<path d="M1705 719 c-4 -6 -4 -13 -1 -16 8 -8 36 5 36 17 0 13 -27 13 -35 -1z"/>
<path d="M1740 695 c-8 -9 -3 -21 19 -44 31 -33 45 -38 57 -20 4 6 -9 26 -29
44 -28 26 -38 30 -47 20z"/>
<path d="M1632 646 l-37 -35 50 -50 c43 -45 51 -49 64 -36 13 13 13 17 -2 33
-16 18 -16 20 1 43 21 26 19 47 -6 67 -23 17 -28 16 -70 -22z m54 -17 c10 -17
-13 -36 -27 -22 -12 12 -4 33 11 33 5 0 12 -5 16 -11z"/>
<path d="M1515 475 c-25 -25 -33 -55 -15 -55 6 0 15 11 20 25 5 14 14 25 20
25 14 0 13 -6 -6 -42 -14 -27 -14 -32 -1 -45 13 -13 19 -11 53 21 l38 36 -29
30 c-35 36 -49 37 -80 5z m65 -51 c0 -8 -7 -14 -15 -14 -17 0 -18 2 -9 24 7
18 24 12 24 -10z"/>
<path d="M2208 443 c6 -2 18 -2 25 0 6 3 1 5 -13 5 -14 0 -19 -2 -12 -5z"/>
<path d="M1415 429 c-4 -5 0 -18 9 -28 16 -17 15 -19 -4 -24 -25 -7 -27 -48
-2 -69 29 -26 49 -28 68 -7 9 10 13 19 8 20 -5 0 2 5 15 10 l25 10 -49 49
c-52 52 -60 57 -70 39z m53 -71 c16 -16 15 -38 -2 -38 -18 0 -39 27 -31 40 8
13 18 13 33 -2z"/>
<path d="M1330 290 c-11 -11 -20 -31 -20 -43 0 -25 28 -57 49 -57 17 0 61 46
61 65 0 19 -35 55 -55 55 -8 0 -24 -9 -35 -20z m54 -33 c8 -12 7 -20 -2 -29
-16 -16 -47 13 -38 37 7 19 25 16 40 -8z"/>
<path d="M1190 205 l-34 -35 49 -50 c43 -44 51 -48 64 -35 13 13 13 17 -2 33
-26 28 -21 35 19 28 40 -8 76 10 52 25 -7 5 -23 9 -35 9 -16 0 -22 7 -25 28
-5 43 -45 42 -88 -3z m50 -30 c-9 -11 -16 -13 -23 -6 -7 7 -6 15 3 26 9 11 16
13 23 6 7 -7 6 -15 -3 -26z"/>
</g>
</svg>
